<svg width="1200" height="900" viewBox="0 0 1200 900" fill="none" xmlns="http://www.w3.org/2000/svg">
  <defs>
    <linearGradient id="bg5" x1="200" y1="80" x2="1000" y2="820" gradientUnits="userSpaceOnUse">
      <stop stop-color="#0B1020"/>
      <stop offset="1" stop-color="#030408"/>
    </linearGradient>
    <radialGradient id="pulse" cx="0" cy="0" r="1" gradientUnits="userSpaceOnUse" gradientTransform="translate(620 440) rotate(90) scale(280 280)">
      <stop stop-color="#22C55E" stop-opacity=".55"/>
      <stop offset="1" stop-color="#22C55E" stop-opacity="0"/>
    </radialGradient>
  </defs>
  <rect width="1200" height="900" rx="36" fill="url(#bg5)"/>
  <rect x="240" y="160" width="720" height="560" rx="42" fill="#0F172A" fill-opacity=".55" stroke="#FFFFFF" stroke-opacity=".08"/>
  <rect x="280" y="210" width="640" height="90" rx="24" fill="#111827"/>
  <rect x="280" y="330" width="320" height="330" rx="24" fill="#0B1220"/>
  <rect x="620" y="330" width="300" height="150" rx="24" fill="#0B1220"/>
  <rect x="620" y="510" width="300" height="150" rx="24" fill="#0B1220"/>
  <circle cx="600" cy="450" r="240" fill="url(#pulse)"/>
  <path d="M320 510c50-80 110-120 180-120s130 40 180 120 110 120 180 120" stroke="#22C55E" stroke-opacity=".7" stroke-width="4" fill="none"/>
  <path d="M340 470h520" stroke="#22C55E" stroke-opacity=".18" stroke-width="3"/>
  <path d="M340 560h520" stroke="#22C55E" stroke-opacity=".18" stroke-width="3"/>
</svg>
